<svg xmlns="http://www.w3.org/2000/svg" viewBox="0 0 420 420"><rect width="420" height="420" fill="#F5F6F8"/><path d="M103 245V205C103 75 310 65 310 205V245Z" fill="#E8A48B" stroke="#111111" stroke-width="3"/><path d="M100 240Q238 213 339 264Q363 292 307 299Q195 257 100 270Z" fill="#E8A48B" stroke="#111111" stroke-width="3"/><path d="M207 111V228" stroke="#111111" opacity=".2" stroke-width="3"/><g transform="translate(176 168) scale(.68)"><g transform="matrix(1.18 0 0 1.18 -9 -9)"><title>Bannaa</title><g fill="#050607"><path d="M82.41 51.21C82.41 72.06 71.14 82.6 48.84 82.6C26.55 82.6 15.27 72.06 15.27 51.21C15.27 30.35 26.55 19.81 48.84 19.81C71.14 19.81 82.41 30.35 82.41 51.21Z"/></g><g fill="#F7F7F7"><path d="M42.55 46.81C44.49 55.95 44.49 55.96 41.11 56.68C37.73 57.4 37.72 57.38 35.78 48.25C33.85 39.11 33.85 39.1 37.23 38.38C40.61 37.66 40.62 37.68 42.55 46.81Z"/><path d="M66.96 47.23C68.76 55.7 68.76 55.72 65.1 56.5C61.45 57.28 61.44 57.26 59.64 48.79C57.84 40.32 57.84 40.3 61.5 39.52C65.15 38.75 65.16 38.76 66.96 47.23Z"/></g></g></g></svg>