<svg xmlns="http://www.w3.org/2000/svg" width="200" height="200" fill="none" viewBox="0 0 200 200">
  <path d="m186.3 73.18c-3.37-7.21-9.8-9.47-15.69-9.26-7.81 0.26-11.82 6.13-15.43 12.19l-8.34 12.11 5.42-27.46 2.54-13.68-0.09 0.09c0.84-5.06 1.57-9.29 0.41-15.54-1.99-8.6-9.12-14.37-19.17-14-9.02 0.66-12.23 9.26-12.7 10.78-1.12 3.13-2.98 12.21-6.22 25.56l-0.18-24.9-0.18-0.09c0-3.14-0.09-6.81-0.36-10.41-1.02-10.05-9.36-15.2-17.06-14.94-10.59 0.55-14.73 8.89-15.16 15.12v9.17l-0.18 44.75 0.09 0.09c-5.5-1.28-11.09-1.93-16.72-2.02-13.53-0.27-26.32 3.48-36.82 14.17l-3.66 3.75c-3.51 4.03-5.2 9-4.82 13.5 0.83 7.91 7.57 13.25 16.78 13.07 6.09-0.18 10-3.48 14.19-6.42 4.55-3.29 8.42-5 14.9-5 10.81 0 21.13 9.61 21.04 22.3-0.09 12.02-10.68 21-22.97 20.91-8.93 0-15.67-5.87-19.13-13.21-3.03-7.91-8.12-15.83-17.69-16.1-9.02 0.27-17.18 7.62-17.36 17.22 0 4.24 4.02 19.29 10.99 30.52 9.75 15.66 28.58 28.04 46.63 31.08 1.6 0.37 4.05 0.37 6.23 0.28h9.47c5.89 0.18 14.19-1.9 21.8-5.93 2.54-1.19 5.42-3.27 9.99-6.66l0.27 0.09c3.45-2.95 8.55-7.54 11.18-10.49l-0.09-0.09c1.82-1.71 4.7-5.56 7.84-8.6l-0.27-0.18c1.71-1.62 5.72-7.58 7.54-10.01l-0.09-0.09c2.35-3.13 4.43-6.73 6.62-9.77l-0.09-0.18c1.42-2.62 5.04-7.96 6.74-10.14l-0.17-0.18c1.42-2.35 6.07-9.16 7.67-11.78l-0.09-0.09c1.91-3.38 7.1-11.12 9.28-14.6l-0.09-0.09c2.63-4.15 5.77-9.21 7.76-12.16l-0.09-0.09c5.1-7.37 8.71-14.05 5.53-22.59zm-69.81-42.47 0.27 1.38-0.18 0.74-0.09-2.12z" fill="#000"/>
</svg>
