<svg xmlns="http://www.w3.org/2000/svg" width="200" height="200" fill="none" viewBox="0 0 200 200">
  <path d="m100.1 1.38c-14.48-0.14-33.58 1.27-40.18 13.13-7.69 13.91 6.9 23.47 21.39 28.28 10 3.45 20.54 6.09 31.6 6.38 14.8 0.42 25.31-5.94 31.77-20.76 4.17-9.63-1.64-20.16-16.1-23.98-8.59-2.45-17.53-2.92-28.48-3.05z" fill="#D3F500"/>
  <path d="m111 125.7c-26.88 0-47.87 3.64-63.79 10.58-13.68 6.26-26.83 16.4-26.83 32.81 0 18.66 15.62 29.15 74.65 29.15 43.82 0 84.02-6.45 84.02-31.94 0-13.4-8.88-28.1-26.5-33.76-11.35-3.93-23.38-6.84-41.55-6.84z" fill="#35490D"/>
  <path d="m72.34 50.71c-20.99 0-34.47 8.7-38.36 24.39-1.2 4.81-1.5 9.53-1.37 14.62 0.85 18.61 12.13 30.11 43.31 30.11 10.89-0.11 26.81-1.57 39.93-2.57 20.44-1.6 43.67-5.24 47.77-20.13 1.57-6.16-1.24-13.84-10.68-19.82-14.18-9.62-49.59-26.6-80.6-26.6z" fill="url(#paint0_linear_1_724)"/>
  <defs>
    <linearGradient id="paint0_linear_1_724" x1="94.43" x2="94.43" y1="50.71" y2="119.8" gradientUnits="userSpaceOnUse">
      <stop stop-color="#272326" offset="0"/>
      <stop stop-color="#272529" offset="1"/>
    </linearGradient>
  </defs>
</svg>
